<!-- <?xml version="1.0" encoding="UTF-8"?> -->
<svg class="knockout" width="736px" height="557px" viewBox="0 0 736 557" version="1.1" xmlns="http://www.w3.org/2000/svg" xmlns:xlink="http://www.w3.org/1999/xlink">
    <!-- Generator: Sketch 51.2 (57519) - http://www.bohemiancoding.com/sketch -->
    <title>bg-chevs-shape</title>
    <desc>Created with Sketch.</desc>
    <defs></defs>
    <g id="Hero-Explorations---Desktop-^JH" stroke="none" stroke-width="1" fill="none" fill-rule="evenodd" opacity="0.5">
        <g id="homepage-updates-v003" transform="translate(0.000000, -2819.000000)" fill="#F2F3F5">
            <path d="M731.632944,3229.26456 C737.455685,3235.09235 737.455685,3244.72604 731.632944,3250.55384 L610.66251,3371.62916 C604.839768,3377.45695 595.226303,3377.45695 589.391678,3371.62916 L457.845244,3239.96866 L326.179978,3371.62916 C320.357236,3377.45695 310.731887,3377.45695 304.909146,3371.62916 L173.255763,3239.84973 L41.697446,3371.62916 C35.7558727,3377.45695 26.2493553,3377.45695 20.307782,3371.62916 L-100.54382,3250.55384 C-106.485393,3244.72604 -106.485393,3235.09235 -100.54382,3229.26456 L31.1214455,3097.60407 L-100.54382,2965.82464 C-106.485393,2959.99685 -106.485393,2950.36316 -100.54382,2944.53537 L20.307782,2823.46004 C26.2493553,2817.51332 35.7558727,2817.51332 41.697446,2823.46004 L173.374595,2955.23947 L304.909146,2823.46004 C310.731887,2817.51332 320.357236,2817.51332 326.179978,2823.46004 L457.726412,2955.12054 L589.391678,2823.46004 C595.226303,2817.51332 604.839768,2817.51332 610.66251,2823.46004 L731.632944,2944.53537 C737.455685,2950.36316 737.455685,2959.99685 731.632944,2965.82464 L600.098393,3097.60407 L731.632944,3229.26456 Z" id="bg-chevs-shape"></path>
        </g>
    </g>
</svg>