<svg class="large-logo" width="100" height="97" xmlns="http://www.w3.org/2000/svg" viewBox="0 0 111 122.12"><defs><style>.cls-1{fill:#163029;}.cls-2{fill:#00833e;}.cls-3{fill:#3dae2b;}</style></defs><title>Asset 1</title><g id="Layer_2" data-name="Layer 2"><g id="Layer_1-2" data-name="Layer 1"><path class="cls-1" d="M37,10.91H35L30,3.37v7.54H28.25V.62h1.92l5.06,7.54V.62H37Z"/><path class="cls-1" d="M43.34,10a3.71,3.71,0,0,1-2.63,1.11A2.06,2.06,0,0,1,38.43,9c0-1.28.79-2.5,4.82-2.75a1.45,1.45,0,0,0-1.58-1.61,3.64,3.64,0,0,0-2.2.88l-.73-1.16a4.6,4.6,0,0,1,3-1.15c2,0,3.22,1.1,3.22,3v4.69H43.41Zm-2.17-.19a3.1,3.1,0,0,0,2.08-1V7.38c-2.54.26-3.13.85-3.13,1.54C40.12,9.45,40.52,9.81,41.17,9.81Z"/><path class="cls-1" d="M50.2,11c-1.83,0-2.77-.68-2.77-2.75V4.72H45.92V3.38h1.51V1.51h1.74V3.38h2.2V4.72h-2.2V8.07c0,1.13.39,1.5,1.53,1.5h.67v1.35C51,11,50.58,11,50.2,11Z"/><path class="cls-1" d="M52.6,1a1,1,0,0,1,1-1,1,1,0,0,1,1,1A1,1,0,0,1,52.6,1Zm.17,9.87V3.38H54.5v7.53Z"/><path class="cls-1" d="M59.78,3.16a3.74,3.74,0,0,1,3.83,4,3.81,3.81,0,0,1-3.86,4,3.73,3.73,0,0,1-3.82-4A3.8,3.8,0,0,1,59.78,3.16Zm0,1.38c-1.13,0-2.08,1-2.08,2.61s1,2.6,2.08,2.6,2.09-1,2.09-2.6S60.89,4.54,59.76,4.54Z"/><path class="cls-1" d="M66.65,5.59v5.32H64.92V3.38h1.57l.06.84a3.05,3.05,0,0,1,2.32-1,2.74,2.74,0,0,1,2.77,3v4.72H69.9V6.34a1.54,1.54,0,0,0-1.56-1.75A2.1,2.1,0,0,0,66.65,5.59Z"/><path class="cls-1" d="M77.88,10a3.74,3.74,0,0,1-2.64,1.11A2.05,2.05,0,0,1,73,9c0-1.28.79-2.5,4.82-2.75A1.46,1.46,0,0,0,76.2,4.65,3.59,3.59,0,0,0,74,5.53l-.74-1.16a4.63,4.63,0,0,1,3-1.15c1.95,0,3.22,1.1,3.22,3v4.69H78ZM75.7,9.81a3.12,3.12,0,0,0,2.09-1V7.38c-2.55.26-3.13.85-3.13,1.54C74.66,9.45,75.05,9.81,75.7,9.81Z"/><path class="cls-1" d="M81,.18h1.73V10.91H81Z"/><path class="cls-2" d="M97.71,31,57.17,71.51a1.51,1.51,0,0,1-2.14,0L14.48,31a1.5,1.5,0,0,1,0-2.13l12.1-12.09a1.5,1.5,0,0,1,2.13,0L56.1,44.13,83.49,16.74a1.5,1.5,0,0,1,2.13,0L97.71,28.83A1.5,1.5,0,0,1,97.71,31Z"/><path class="cls-3" d="M14.48,57.29,55,16.74a1.51,1.51,0,0,1,2.14,0L97.71,57.29a1.5,1.5,0,0,1,0,2.13L85.62,71.51a1.5,1.5,0,0,1-2.13,0L56.1,44.13,28.71,71.51a1.5,1.5,0,0,1-2.13,0L14.48,59.42A1.5,1.5,0,0,1,14.48,57.29Z"/><path class="cls-2" d="M97.71,28.93,85.62,16.84a1.5,1.5,0,0,0-2.13,0L56.1,44.22h0L41.87,58.44,55,71.61a1.51,1.51,0,0,0,2.14,0L97.71,31.06A1.5,1.5,0,0,0,97.71,28.93Z"/><path class="cls-1" d="M12.21,48.9H5.74V47.82l2.49-3C9.38,43.47,10,42.77,10,42A1,1,0,0,0,8.93,41c-.6,0-1.13.31-1.51,1.51L5.72,42A3.22,3.22,0,0,1,9,39.26,2.81,2.81,0,0,1,12,42c0,1.44-1.08,2.52-2.33,4L8.57,47.2h3.64Z"/><path class="cls-1" d="M16.47,49.09c-1.85,0-3.36-1.37-3.36-4.9s1.55-4.93,3.38-4.93,3.34,1.36,3.34,4.9S18.29,49.09,16.47,49.09Zm0-8.09c-.76,0-1.33.91-1.33,3.17s.58,3.18,1.35,3.18,1.3-.91,1.3-3.18S17.22,41,16.47,41Z"/><path class="cls-1" d="M101.89,49H99.53l2.29-2.95a3.18,3.18,0,0,1-3.33-3.29,3.33,3.33,0,0,1,3.43-3.39,3.18,3.18,0,0,1,3.36,3.39,6.2,6.2,0,0,1-1.58,3.83Zm.92-4.39a4,4,0,0,0,.47-1.85c0-1.06-.63-1.72-1.38-1.72a1.53,1.53,0,0,0-1.44,1.7C100.46,44.06,101.44,44.62,102.81,44.62Z"/><path class="cls-1" d="M97.35,49H95.29v-6.9a8.88,8.88,0,0,1-1.81.77l-.59-1.58a10.11,10.11,0,0,0,3.25-2l1.21.22Z"/><path class="cls-1" d="M24.41,113H9.79V85A1.09,1.09,0,0,0,8.7,83.86H1.09A1.09,1.09,0,0,0,0,85v35.47a1.09,1.09,0,0,0,1.09,1.09H24.41a1.08,1.08,0,0,0,1.08-1.09v-6.29A1.08,1.08,0,0,0,24.41,113Z"/><rect class="cls-1" x="28.74" y="83.86" width="9.78" height="37.64" rx="1.05" ry="1.05"/><path class="cls-1" d="M73.93,83.86H66.77A1.08,1.08,0,0,0,65.69,85v20.38l-14-21a1.1,1.1,0,0,0-.91-.48H42.88A1.09,1.09,0,0,0,41.79,85v35.47a1.09,1.09,0,0,0,1.09,1.09H50a1.09,1.09,0,0,0,1.09-1.09V100l14,21a1.07,1.07,0,0,0,.91.49h7.89A1.08,1.08,0,0,0,75,120.42V85A1.08,1.08,0,0,0,73.93,83.86Z"/><path class="cls-1" d="M110.76,115.66l-3.85-4.75a1,1,0,0,0-1.42-.15,12.89,12.89,0,0,1-7.95,3.2c-5.89,0-10-4.64-10-11.28s3.95-11.27,9.84-11.27c2.5,0,5,1,7.77,3.17a1.07,1.07,0,0,0,1.48-.16l3.83-4.72a1.06,1.06,0,0,0-.08-1.43,18.59,18.59,0,0,0-13.25-5c-9.46,0-19,6.7-19,19.49,0,11.78,7.49,19.39,19.08,19.39a19.48,19.48,0,0,0,13.5-5A1.07,1.07,0,0,0,110.76,115.66Z"/></g></g></svg>