<!-- <?xml version="1.0" encoding="UTF-8"?> -->
<svg class="large-logo" width="100px" height="97px" viewBox="0 0 121 133" version="1.1" xmlns="http://www.w3.org/2000/svg" xmlns:xlink="http://www.w3.org/1999/xlink">
    <!-- Generator: Sketch 51.2 (57519) - http://www.bohemiancoding.com/sketch -->
    <title>Group 24</title>
    <desc>Created with Sketch.</desc>
    <defs></defs>
    <g id="Hero-Explorations---Desktop-^BD" stroke="none" stroke-width="1" fill="none" fill-rule="evenodd">
        <g id="Group-24">
            <g id="Group-2" transform="translate(30.000000, 0.000000)" fill="#163029">
                <polygon id="Fill-1" points="8.3571 0.6731 8.3571 8.8841 2.8501 0.6731 0.7541 0.6731 0.7541 11.8771 2.6271 11.8771 2.6271 3.6661 8.1491 11.8771 10.2301 11.8771 10.2301 0.6731"></polygon>
                <path d="M14.8189,10.6771 C15.5549,10.6771 16.3559,10.3091 17.0919,9.6051 L17.0919,8.0351 C14.3229,8.3231 13.6829,8.9641 13.6829,9.7161 C13.6829,10.2921 14.1149,10.6771 14.8189,10.6771 Z M17.1879,10.8851 C16.3719,11.6691 15.4119,12.1011 14.3229,12.1011 C12.8189,12.1011 11.8419,11.1891 11.8419,9.8131 C11.8419,8.4201 12.7069,7.0911 17.0919,6.8201 C17.0919,5.5861 16.3399,5.0591 15.3639,5.0591 C14.5479,5.0591 13.7629,5.4101 12.9779,6.0191 L12.1779,4.7541 C12.9949,4.0501 14.1319,3.5061 15.4599,3.5061 C17.5889,3.5061 18.9649,4.7061 18.9649,6.7711 L18.9649,11.8771 L17.2679,11.8771 L17.1879,10.8851 Z" id="Fill-2"></path>
                <path d="M24.6509,11.9418 C22.6659,11.9418 21.6409,11.2058 21.6409,8.9488 L21.6409,5.1388 L19.9929,5.1388 L19.9929,3.6818 L21.6409,3.6818 L21.6409,1.6488 L23.5299,1.6488 L23.5299,3.6818 L25.9309,3.6818 L25.9309,5.1388 L23.5299,5.1388 L23.5299,8.7888 C23.5299,10.0208 23.9629,10.4208 25.1949,10.4208 L25.9309,10.4208 L25.9309,11.8928 C25.5309,11.9248 25.0669,11.9418 24.6509,11.9418" id="Fill-4"></path>
                <path d="M27.449,11.877 L29.338,11.877 L29.338,3.682 L27.449,3.682 L27.449,11.877 Z M27.273,1.137 C27.273,0.433 27.785,0 28.393,0 C29.002,0 29.53,0.449 29.53,1.121 C29.53,1.826 29.002,2.257 28.393,2.257 C27.785,2.257 27.273,1.809 27.273,1.137 Z" id="Fill-6"></path>
                <path d="M35.0669,4.9467 C33.8349,4.9467 32.7949,6.0347 32.7949,7.7797 C32.7949,9.5247 33.8349,10.6127 35.0669,10.6127 C36.2989,10.6127 37.3399,9.5247 37.3399,7.7797 C37.3399,6.0347 36.2989,4.9467 35.0669,4.9467 M35.0839,3.4417 C37.3879,3.4417 39.2609,5.0747 39.2609,7.7637 C39.2609,10.4207 37.3399,12.1177 35.0509,12.1177 C32.7469,12.1177 30.8889,10.4847 30.8889,7.7957 C30.8889,5.1387 32.7949,3.4417 35.0839,3.4417" id="Fill-8"></path>
                <path d="M42.5699,6.0834 L42.5699,11.8774 L40.6809,11.8774 L40.6809,3.6824 L42.3929,3.6824 L42.4579,4.5944 C43.1299,3.8574 43.9939,3.4584 44.9869,3.4584 C46.4599,3.4584 47.9959,4.4664 47.9959,6.7394 L47.9959,11.8774 L46.1069,11.8774 L46.1069,6.8994 C46.1069,5.5554 45.2749,4.9944 44.4109,4.9944 C43.7379,4.9944 43.0659,5.3624 42.5699,6.0834" id="Fill-9"></path>
                <path d="M52.4195,10.6771 C53.1555,10.6771 53.9565,10.3091 54.6925,9.6051 L54.6925,8.0351 C51.9235,8.3231 51.2835,8.9641 51.2835,9.7161 C51.2835,10.2921 51.7155,10.6771 52.4195,10.6771 Z M54.7885,10.8851 C53.9725,11.6691 53.0125,12.1011 51.9235,12.1011 C50.4195,12.1011 49.4425,11.1891 49.4425,9.8131 C49.4425,8.4201 50.3075,7.0911 54.6925,6.8201 C54.6925,5.5861 53.9405,5.0591 52.9645,5.0591 C52.1485,5.0591 51.3635,5.4101 50.5785,6.0191 L49.7785,4.7541 C50.5955,4.0501 51.7325,3.5061 53.0605,3.5061 C55.1895,3.5061 56.5655,4.7061 56.5655,6.7711 L56.5655,11.8771 L54.8685,11.8771 L54.7885,10.8851 Z" id="Fill-10"></path>
                <polygon id="Fill-11" points="58.21 11.878 60.099 11.878 60.099 0.193 58.21 0.193"></polygon>
            </g>
            <g id="Group-5" transform="translate(15.000000, 17.000000)">
                <path d="M47.2413,60.8612 C46.5993,61.5032 45.5583,61.5032 44.9173,60.8612 L0.7703,16.7142 C0.1283,16.0722 0.1283,15.0322 0.7703,14.3902 L13.9363,1.2242 C14.5783,0.5822 15.6183,0.5822 16.2603,1.2242 L46.0783,31.0422 L75.8973,1.2242 C76.5383,0.5822 77.5793,0.5822 78.2213,1.2242 L91.3873,14.3902 C92.0293,15.0322 92.0293,16.0722 91.3873,16.7142 L47.2413,60.8612 Z" id="Fill-12" fill="#00833E"></path>
                <path d="M44.9171,1.224 C45.5591,0.582 46.5991,0.582 47.2411,1.224 L91.3871,45.371 C92.0291,46.013 92.0291,47.053 91.3871,47.694 L78.2211,60.861 C77.5801,61.503 76.5391,61.503 75.8971,60.861 L46.0791,31.042 L16.2601,60.861 C15.6191,61.503 14.5781,61.503 13.9371,60.861 L0.7701,47.694 C0.1281,47.053 0.1281,46.013 0.7701,45.371 L44.9171,1.224 Z" id="Fill-13" fill="#3DAE2B"></path>
                <path d="M91.3873,14.4974 L78.2213,1.3304 C77.5793,0.6894 76.5383,0.6894 75.8973,1.3304 L46.0783,31.1494 L46.0713,31.1424 L30.5813,46.6324 L44.9173,60.9674 C45.5583,61.6094 46.5993,61.6094 47.2413,60.9674 L91.3873,16.8214 C92.0293,16.1794 92.0293,15.1394 91.3873,14.4974" id="Fill-14" fill="#00833E"></path>
            </g>
            <g id="Group-3" transform="translate(6.000000, 42.000000)" fill="#163029">
                <path d="M7.2969,11.2387 L0.2439,11.2387 L0.2439,10.0627 L2.9629,6.8307 C4.2109,5.3317 4.9169,4.5677 4.9169,3.7737 C4.9169,3.0247 4.3729,2.5977 3.7269,2.5977 C3.0659,2.5977 2.4919,2.9367 2.0809,4.2447 L0.2299,3.7447 C0.6259,1.9367 1.8899,0.7477 3.7559,0.7477 C5.7539,0.7477 7.0919,2.0697 7.0919,3.6857 C7.0919,5.2587 5.9159,6.4337 4.5499,7.9917 L3.3299,9.3867 L7.2969,9.3867 L7.2969,11.2387 Z" id="Fill-15"></path>
                <path d="M11.9288,2.6429 C11.1058,2.6429 10.4888,3.6269 10.4888,6.0959 C10.4888,8.5639 11.1198,9.5489 11.9578,9.5489 C12.7668,9.5489 13.3688,8.5639 13.3688,6.0959 C13.3688,3.6269 12.7518,2.6429 11.9288,2.6429 M11.9288,11.4449 C9.9158,11.4449 8.2698,9.9599 8.2698,6.1109 C8.2698,2.2599 9.9598,0.7469 11.9578,0.7469 C13.9568,0.7469 15.5878,2.2309 15.5878,6.0809 C15.5878,9.9309 13.9118,11.4449 11.9288,11.4449" id="Fill-16"></path>
                <path d="M105.9341,6.5761 C106.2721,5.9301 106.4481,5.2681 106.4481,4.5621 C106.4481,3.4171 105.7581,2.6961 104.9501,2.6961 C104.0081,2.6961 103.3771,3.5051 103.3771,4.5481 C103.3771,5.9731 104.4501,6.5761 105.9341,6.5761 Z M104.9341,11.3661 L102.3641,11.3661 L104.8621,8.1481 C103.4071,8.1481 101.2311,7.2661 101.2311,4.5621 C101.2311,2.4171 102.8621,0.8751 104.9631,0.8751 C106.9611,0.8751 108.6231,2.1391 108.6231,4.5621 C108.6231,5.8551 108.1661,7.0461 106.9031,8.7361 L104.9341,11.3661 Z" id="Fill-17"></path>
                <path d="M99.9966,11.3661 L97.7456,11.3661 L97.7456,3.8451 C97.1836,4.1711 96.5176,4.4521 95.7766,4.6891 L95.1406,2.9711 C96.6356,2.3651 97.6426,1.7431 98.6786,0.8251 L99.9966,1.0621 L99.9966,11.3661 Z" id="Fill-18"></path>
            </g>
            <g id="Group-4" transform="translate(0.000000, 90.000000)" fill="#163029">
                <path d="M26.5752,33.077 L10.6542,33.077 L10.6542,2.488 C10.6542,1.837 10.1232,1.306 9.4712,1.306 L1.1822,1.306 C0.5312,1.306 0.0002,1.837 0.0002,2.488 L0.0002,41.108 C0.0002,41.761 0.5312,42.291 1.1822,42.291 L26.5752,42.291 C27.2262,42.291 27.7572,41.761 27.7572,41.108 L27.7572,34.259 C27.7572,33.607 27.2262,33.077 26.5752,33.077" id="Fill-19"></path>
                <path d="M40.7979,1.3055 L32.4279,1.3055 C31.7979,1.3055 31.2859,1.8185 31.2859,2.4485 L31.2859,41.1495 C31.2859,41.7795 31.7979,42.2905 32.4279,42.2905 L40.7979,42.2905 C41.4279,42.2905 41.9399,41.7795 41.9399,41.1495 L41.9399,2.4485 C41.9399,1.8185 41.4279,1.3055 40.7979,1.3055" id="Fill-20"></path>
                <path d="M80.4878,1.3055 L72.7018,1.3055 C72.0488,1.3055 71.5168,1.8375 71.5168,2.4915 L71.5168,24.6775 L56.3198,1.8315 C56.0988,1.5025 55.7308,1.3055 55.3338,1.3055 L46.6888,1.3055 C46.0348,1.3055 45.5038,1.8375 45.5038,2.4915 L45.5038,41.1065 C45.5038,41.7595 46.0348,42.2905 46.6888,42.2905 L54.4748,42.2905 C55.1278,42.2905 55.6588,41.7595 55.6588,41.1065 L55.6588,18.9085 L70.9128,41.7655 C71.1338,42.0945 71.5018,42.2905 71.8968,42.2905 L80.4878,42.2905 C81.1408,42.2905 81.6728,41.7595 81.6728,41.1065 L81.6728,2.4915 C81.6728,1.8375 81.1408,1.3055 80.4878,1.3055" id="Fill-21"></path>
                <path d="M120.5943,35.9266 L116.3993,30.7586 C116.0183,30.2906 115.3213,30.2176 114.8523,30.5946 C111.9503,32.9056 109.0373,34.0756 106.1943,34.0756 C99.7823,34.0756 95.3053,29.0276 95.3053,21.7986 C95.3053,14.4546 99.6153,9.5206 106.0283,9.5206 C108.7423,9.5206 111.5093,10.6526 114.4863,12.9786 C114.9783,13.3656 115.7003,13.2846 116.0943,12.8016 L120.2673,7.6626 C120.6413,7.2016 120.6013,6.5176 120.1753,6.1066 C116.4723,2.5256 111.4843,0.6316 105.7503,0.6316 C95.4523,0.6316 85.0293,7.9216 85.0293,21.8536 C85.0293,34.6786 93.1843,42.9646 105.8053,42.9646 C111.5303,42.9646 116.8863,40.9736 120.5023,37.4976 C120.9313,37.0826 120.9713,36.3926 120.5943,35.9266" id="Fill-22"></path>
            </g>
        </g>
    </g>
</svg>