<svg class="large-logo" width="100" height="97" xmlns="http://www.w3.org/2000/svg"><g fill="none" fill-rule="evenodd"><g fill="#43B02A" fill-opacity=".9"><path d="M79.246 10.368L50.41 39.028a1.078 1.078 0 0 1-1.517 0l-28.835-28.66a1.062 1.062 0 0 1 0-1.508l8.6-8.548a1.078 1.078 0 0 1 1.517 0L49.65 19.67 69.128.312a1.078 1.078 0 0 1 1.518 0l8.6 8.548a1.063 1.063 0 0 1 0 1.508"/><path d="M20.057 28.972L48.893.312a1.078 1.078 0 0 1 1.517 0l28.836 28.66c.419.416.419 1.092 0 1.508l-8.6 8.548a1.078 1.078 0 0 1-1.518 0L49.652 19.67 30.175 39.028a1.078 1.078 0 0 1-1.518 0l-8.6-8.548a1.063 1.063 0 0 1 0-1.508"/></g><g fill="#1E2F28"><path d="M.768 52.153h7.12c.424 0 .767.342.767.764v23.885c0 .423.344.764.769.764h13.248c.424 0 .767.343.767.765v5.909a.766.766 0 0 1-.767.764H.768A.766.766 0 0 1 0 84.24V52.917c0-.422.344-.764.768-.764M34.431 85.004h-7.136a.768.768 0 0 1-.77-.766V52.842c0-.423.345-.766.77-.766h7.136c.425 0 .77.343.77.766v31.396a.768.768 0 0 1-.77.766M66.657 85.004H60.83a.77.77 0 0 1-.625-.32l-12.89-17.92c-.218-.303-.697-.15-.697.222V84.24a.766.766 0 0 1-.768.764h-6.796a.766.766 0 0 1-.768-.764V52.917c0-.422.344-.765.768-.765h6.896a.77.77 0 0 1 .63.326l11.813 16.768c.215.305.698.154.698-.22V52.917c0-.422.344-.765.768-.765h6.797c.424 0 .767.343.767.765V84.24a.766.766 0 0 1-.767.764M85.97 52.015c7.632 0 12.273 4.3 13.696 10.336a.752.752 0 0 1-.728.928h-6.955a.764.764 0 0 1-.696-.473c-.897-2.082-2.584-3.438-5.317-3.438-4.455 0-6.97 3.911-6.97 9.18 0 5.215 2.515 9.179 6.97 9.179 2.735 0 4.423-1.36 5.319-3.486a.763.763 0 0 1 .698-.478h6.953c.487 0 .839.455.729.927-1.421 6.086-6.063 10.39-13.699 10.39-9.013 0-15.46-6.832-15.46-16.533 0-9.7 6.447-16.532 15.46-16.532"/></g><g fill="#1D2F28"><path d="M79.133 23.033H78.06a.143.143 0 0 1-.142-.144v-4.767a.142.142 0 0 0-.205-.129l-1.142.574a.142.142 0 0 1-.206-.128v-1.053c0-.054.031-.104.08-.128l1.922-.957c.02-.01.04-.015.062-.015h.704c.08 0 .143.065.143.144v6.459c0 .08-.064.144-.143.144M83.482 17.586c-1.058-.603-1.97-.073-1.97.876 0 .703.455 1.164 1.096 1.164.888 0 1.386-.83.943-1.96a.194.194 0 0 0-.07-.08zm-1.916 3.743c.06 0 .11.038.131.094.142.351.416.566.846.566.792 0 1.292-.945 1.292-1.89V20c-.217.418-.749.714-1.4.714-1.347 0-2.173-1.01-2.173-2.22 0-1.273.87-2.318 2.357-2.318.836 0 1.575.396 2.02 1.22.336.593.467 1.252.467 2.12 0 2.1-.956 3.626-2.552 3.626-1.191 0-1.916-.608-2.194-1.63a.146.146 0 0 1 .14-.183h1.066zM15.316 17.633c-.519 0-.808.343-.877.806a.144.144 0 0 1-.14.128h-1.142a.146.146 0 0 1-.143-.167c.187-1.167 1.036-2.02 2.29-2.02 1.402 0 2.238.791 2.238 2.01 0 .847-.64 1.506-1.325 2.231l-1.06 1.154c-.084.092-.02.242.104.242h2.215c.079 0 .142.064.142.143v.933c0 .079-.063.143-.142.143h-4.332a.143.143 0 0 1-.141-.143v-.711c0-.037.014-.073.038-.099l2.08-2.211c.586-.648 1.042-1.12 1.042-1.626 0-.473-.326-.813-.847-.813M19.636 19.863c0 1.253.37 2.23 1.27 2.23.89 0 1.27-.977 1.27-2.23 0-1.253-.38-2.23-1.27-2.23-.9 0-1.27.977-1.27 2.23m-1.358 0c0-2.055 1.065-3.483 2.629-3.483 1.563 0 2.628 1.428 2.628 3.483s-1.065 3.483-2.628 3.483c-1.564 0-2.63-1.428-2.63-3.483"/></g><g fill="#1D2F28"><path d="M6.086 96.418H5.35L1 90.146v6.272H.037v-7.891h.951l4.146 6.001v-6.001h.952zM10.715 94.413c-.165-.424-.735-.707-1.318-.707-.686 0-1.345.308-1.345.99 0 .693.66 1.014 1.345 1.014.583 0 1.153-.283 1.318-.707v-.59zm0 2.005v-.425c-.215.231-.811.527-1.483.527-1.142 0-2.092-.694-2.092-1.825 0-1.066.95-1.786 2.155-1.786.583 0 1.18.244 1.42.462v-.72c0-.706-.431-1.22-1.243-1.22-.595 0-.976.257-1.153.784H7.38c.19-.964 1.028-1.62 2.105-1.62 1.344 0 2.143.772 2.143 2.018v3.805h-.913zM13.164 91.534h-.913v-.823h.913v-1.503h.95v1.503h1.358v.823h-1.357v3.341c0 .553.266.797.748.797.266 0 .545-.103.735-.231v.9c-.215.115-.545.192-.887.192-.913 0-1.547-.501-1.547-1.555v-3.444zM16.601 96.418h.95V90.71h-.95v5.707zm.469-6.812a.621.621 0 0 1-.609-.617.616.616 0 1 1 .609.617zM21.116 91.444c-1.015 0-1.624.873-1.624 2.12s.609 2.12 1.624 2.12c1.014 0 1.623-.873 1.623-2.12s-.609-2.12-1.623-2.12m0 5.09c-1.548 0-2.588-1.222-2.588-2.97 0-1.747 1.04-2.969 2.588-2.969 1.534 0 2.586 1.222 2.586 2.97 0 1.747-1.052 2.968-2.586 2.968M24.68 90.711h.95v.72c.33-.45.94-.836 1.662-.836 1.281 0 1.978.835 1.978 2.082v3.74h-.963v-3.585c0-.797-.393-1.35-1.243-1.35-.66 0-1.23.45-1.433 1.067v3.869h-.951V90.71zM33.735 94.413c-.165-.424-.735-.707-1.319-.707-.685 0-1.344.308-1.344.99 0 .693.66 1.014 1.344 1.014.584 0 1.154-.283 1.319-.707v-.59zm0 2.005v-.425c-.216.231-.812.527-1.484.527-1.14 0-2.092-.694-2.092-1.825 0-1.066.951-1.786 2.156-1.786.583 0 1.179.244 1.42.462v-.72c0-.706-.431-1.22-1.243-1.22-.596 0-.976.257-1.154.784H30.4c.19-.964 1.027-1.62 2.105-1.62 1.344 0 2.143.772 2.143 2.018v3.805h-.913zM35.955 96.418h.951v-8.354h-.95z"/></g></g></svg>