<!-- <?xml version="1.0" encoding="UTF-8"?> -->
<svg width="24px" height="24px" viewBox="0 0 24 24" version="1.1" xmlns="http://www.w3.org/2000/svg" xmlns:xlink="http://www.w3.org/1999/xlink">
    <!-- Generator: Sketch 51.2 (57519) - http://www.bohemiancoding.com/sketch -->
    <title>linkedin</title>
    <desc>Created with Sketch.</desc>
    <defs></defs>
    <g id="Symbols" stroke="none" stroke-width="1" fill="none" fill-rule="evenodd" opacity="0.64">
        <g id="sidebar-nav" transform="translate(-186.000000, -707.000000)">
            <g id="social-hashtag" transform="translate(90.000000, 707.000000)">
                <g id="social-icons">
                    <g id="linkedin" transform="translate(96.000000, 0.000000)">
                        <rect id="Rectangle" x="0" y="0" width="24" height="24"></rect>
                        <circle id="Oval" stroke="#4A4A4A" cx="12" cy="12" r="11.5"></circle>
                        <path d="M7.27516463,9.49806168 L9.40143676,9.49806168 L9.40143676,16.9083924 L7.27516463,16.9083924 L7.27516463,9.49806168 Z M8.2841016,8.57115915 L8.26870777,8.57115915 C7.49901651,8.57115915 7,8.00467991 7,7.28732581 C7,6.55530332 7.51376892,6 8.29885402,6 C9.0832977,6 9.56563756,6.55390633 9.58103139,7.28523033 C9.58103139,8.00258443 9.0832977,8.57115915 8.2841016,8.57115915 L8.2841016,8.57115915 Z M17.9090909,16.9090909 L15.498033,16.9090909 L15.498033,13.0736563 C15.498033,12.0699193 15.1208843,11.3853945 14.2915419,11.3853945 C13.6571881,11.3853945 13.3044129,11.8470995 13.1402121,12.2934376 C13.0786368,12.4526944 13.0882579,12.6755143 13.0882579,12.8990326 L13.0882579,16.9090909 L10.6996494,16.9090909 C10.6996494,16.9090909 10.730437,10.115531 10.6996494,9.49806168 L13.0882579,9.49806168 L13.0882579,10.6610554 C13.229368,10.1525513 13.9926452,9.42681521 15.2106816,9.42681521 C16.7218421,9.42681521 17.9090909,10.4934167 17.9090909,12.7879719 L17.9090909,16.9090909 L17.9090909,16.9090909 Z" id="Shape" fill="#000000"></path>
                    </g>
                </g>
            </g>
        </g>
    </g>
</svg>