<!-- <?xml version="1.0" encoding="UTF-8"?> -->
<svg class="mobile-logo" width="128px" height="31px" viewBox="0 0 206 48" version="1.1" xmlns="http://www.w3.org/2000/svg" xmlns:xlink="http://www.w3.org/1999/xlink">
    <!-- Generator: Sketch 51.2 (57519) - http://www.bohemiancoding.com/sketch -->
    <title>Group 17</title>
    <desc>Created with Sketch.</desc>
    <defs>
        <polygon id="path-1" points="0 0.8755 71.0917 0.8755 71.0917 47.9175 0 47.9175"></polygon>
    </defs>
    <g id="Symbols" stroke="none" stroke-width="1" fill="none" fill-rule="evenodd">
        <g id="logo-linc-neue-horz" transform="translate(-31.000000, -32.000000)">
            <g id="Group-17" transform="translate(31.000000, 31.000000)">
                <g id="Group-3" transform="translate(0.000000, 0.125300)">
                    <mask id="mask-2" fill="white">
                        <use xlink:href="#path-1"></use>
                    </mask>
                    <g id="Clip-2"></g>
                    <path d="M70.7182,13.273 L36.4472,47.544 C35.9492,48.042 35.1422,48.042 34.6442,47.544 L0.3732,13.273 C-0.1248,12.775 -0.1248,11.967 0.3732,11.469 L10.5942,1.249 C11.0922,0.751 11.9002,0.751 12.3982,1.249 L35.5462,24.396 L58.6942,1.249 C59.1922,0.751 59.9992,0.751 60.4972,1.249 L70.7182,11.469 C71.2162,11.967 71.2162,12.775 70.7182,13.273" id="Fill-1" fill="#389423" mask="url(#mask-2)"></path>
                </g>
                <g id="Group-6" transform="translate(0.000000, 0.125300)" fill="#43B02A">
                    <path d="M0.3735,35.5191 L34.6445,1.2481 C35.1425,0.7501 35.9495,0.7501 36.4475,1.2481 L70.7185,35.5191 C71.2165,36.0171 71.2165,36.8251 70.7185,37.3231 L60.4975,47.5431 C59.9995,48.0411 59.1915,48.0411 58.6935,47.5431 L35.5465,24.3961 L12.3975,47.5431 C11.8995,48.0411 11.0925,48.0411 10.5945,47.5431 L0.3735,37.3231 C-0.1245,36.8251 -0.1245,36.0171 0.3735,35.5191" id="Fill-4"></path>
                </g>
                <path d="M86.7788,4.8583 L95.2978,4.8583 C95.8048,4.8583 96.2168,5.2693 96.2168,5.7773 L96.2168,34.4903 C96.2168,34.9983 96.6278,35.4093 97.1348,35.4093 L112.9848,35.4093 C113.4918,35.4093 113.9038,35.8213 113.9038,36.3283 L113.9038,43.4313 C113.9038,43.9383 113.4918,44.3503 112.9848,44.3503 L86.7788,44.3503 C86.2718,44.3503 85.8608,43.9383 85.8608,43.4313 L85.8608,5.7773 C85.8608,5.2693 86.2718,4.8583 86.7788,4.8583" id="Fill-7" fill="#1D2F28"></path>
                <path d="M127.0532,44.3505 L118.5162,44.3505 C118.0082,44.3505 117.5952,43.9375 117.5952,43.4295 L117.5952,5.6875 C117.5952,5.1785 118.0082,4.7665 118.5162,4.7665 L127.0532,4.7665 C127.5622,4.7665 127.9742,5.1785 127.9742,5.6875 L127.9742,43.4295 C127.9742,43.9375 127.5622,44.3505 127.0532,44.3505" id="Fill-9" fill="#1D2F28"></path>
                <path d="M165.6088,44.3505 L158.6378,44.3505 C158.3418,44.3505 158.0638,44.2065 157.8908,43.9665 L142.4678,22.4225 C142.2088,22.0595 141.6348,22.2435 141.6348,22.6905 L141.6348,43.4315 C141.6348,43.9385 141.2238,44.3505 140.7168,44.3505 L132.5858,44.3505 C132.0778,44.3505 131.6668,43.9385 131.6668,43.4315 L131.6668,5.7775 C131.6668,5.2695 132.0778,4.8585 132.5858,4.8585 L140.8368,4.8585 C141.1358,4.8585 141.4168,5.0035 141.5878,5.2495 L155.7228,25.4065 C155.9798,25.7735 156.5578,25.5915 156.5578,25.1425 L156.5578,5.7775 C156.5578,5.2695 156.9688,4.8585 157.4768,4.8585 L165.6088,4.8585 C166.1158,4.8585 166.5268,5.2695 166.5268,5.7775 L166.5268,43.4315 C166.5268,43.9385 166.1158,44.3505 165.6088,44.3505" id="Fill-11" fill="#1D2F28"></path>
                <path d="M188.7153,4.6923 C197.8463,4.6923 203.3983,9.8613 205.1013,17.1173 C205.2343,17.6853 204.8133,18.2343 204.2303,18.2343 L195.9083,18.2343 C195.5403,18.2343 195.2213,18.0043 195.0753,17.6653 C194.0033,15.1633 191.9843,13.5323 188.7153,13.5323 C183.3853,13.5323 180.3763,18.2343 180.3763,24.5673 C180.3763,30.8363 183.3853,35.6013 188.7153,35.6013 C191.9863,35.6013 194.0063,33.9683 195.0783,31.4113 C195.2213,31.0693 195.5423,30.8363 195.9133,30.8363 L204.2323,30.8363 C204.8153,30.8363 205.2353,31.3833 205.1033,31.9513 C203.4033,39.2673 197.8503,44.4423 188.7153,44.4423 C177.9313,44.4423 170.2193,36.2293 170.2193,24.5673 C170.2193,12.9053 177.9313,4.6923 188.7153,4.6923" id="Fill-13" fill="#1D2F28"></path>
                <path d="M70.7182,11.6776 L60.4972,1.4566 C59.9992,0.9586 59.1922,0.9586 58.6942,1.4566 L35.5462,24.6046 L35.5402,24.5986 L23.5162,36.6226 L34.6442,47.7516 C35.1422,48.2496 35.9492,48.2496 36.4472,47.7516 L70.7182,13.4816 C71.2162,12.9836 71.2162,12.1756 70.7182,11.6776" id="Fill-15" fill="#389423"></path>
            </g>
        </g>
    </g>
</svg>