<svg xmlns="http://www.w3.org/2000/svg" viewBox="0 0 64 80"><path d="M48.812 27.416A1 1 0 0 0 48 27h-7.059c-.5-4.493-4.316-8-8.941-8-4.624 0-8.441 3.507-8.941 8H19v-6.586l1.707-1.707a.999.999 0 1 0-1.414-1.414l-2 2A.996.996 0 0 0 17 20v7h-1a1.002 1.002 0 0 0-.949 1.317l2 6A1 1 0 0 0 18 35h5v21a1 1 0 0 0 1 1h16a1 1 0 0 0 1-1V35h5a.998.998 0 0 0 .948-.684l2-6a.996.996 0 0 0-.136-.9zM32 17c2.757 0 5-2.243 5-5s-2.243-5-5-5-5 2.243-5 5 2.243 5 5 5z"/><text y="79" font-size="5" font-weight="bold" font-family="'Helvetica Neue', Helvetica, Arial-Unicode, Arial, Sans-serif">Created by Ralf Schmitzer</text><text y="84" font-size="5" font-weight="bold" font-family="'Helvetica Neue', Helvetica, Arial-Unicode, Arial, Sans-serif">from the Noun Project</text></svg>