<?xml version="1.0" encoding="UTF-8"?>
<svg width="126px" height="35px" viewBox="0 0 126 35" version="1.1" xmlns="http://www.w3.org/2000/svg" xmlns:xlink="http://www.w3.org/1999/xlink">
    <!-- Generator: Sketch 51.2 (57519) - http://www.bohemiancoding.com/sketch -->
    <title>logo-tdai-dark</title>
    <desc>Created with Sketch.</desc>
    <defs>
        <polygon id="path-1" points="0 34.34375 125.510536 34.34375 125.510536 0.141249679 0 0.141249679"></polygon>
    </defs>
    <g id="Symbols" stroke="none" stroke-width="1" fill="none" fill-rule="evenodd">
        <g id="sidebar-nav" transform="translate(-103.000000, -828.000000)">
            <g id="menu">
                <g id="logo-tdai-dark" transform="translate(103.000000, 828.000000)">
                    <g id="Header---td-logo">
                        <polygon id="Fill-1" fill="#6FB656" points="0 24.53125 27.475 24.53125 27.475 0 0 0"></polygon>
                        <g id="Group-28">
                            <path d="M18.1640931,19.614878 C21.8670126,19.614878 24.6100394,18.803661 24.6100394,12.1732038 C24.6100394,7.13876232 22.7725255,5.13907546 18.9112026,5.13907546 L2.90509642,5.13907546 L2.90509642,7.20234229 L7.60772883,7.20234229 L7.60772883,19.614878 L10.8133355,19.614878 L10.8133355,7.20234229 L17.914121,7.20234229 C20.0935266,7.20234229 21.1213065,8.32793668 21.1213065,12.2042013 C21.1213065,16.0524625 20.219302,17.5528441 18.0697177,17.5528441 L14.9562059,17.5528441 L14.9562059,7.95209277 L11.7181467,7.95209277 L11.7181467,19.614878 L18.1640931,19.614878 Z" id="Fill-2" fill="#FEFEFE"></path>
                            <mask id="mask-2" fill="white">
                                <use xlink:href="#path-1"></use>
                            </mask>
                            <g id="Clip-5"></g>
                            <polygon id="Fill-4" fill="#173E2D" mask="url(#mask-2)" points="34.2689777 34.220817 35.1274782 34.220817 35.1274782 24.9846378 34.2689777 24.9846378"></polygon>
                            <path d="M40.8323846,29.7501413 C40.8323846,28.9501962 40.3662963,28.7038018 39.6056796,28.7038018 C38.8082248,28.7038018 38.4037086,28.8395917 37.9497242,29.0977862 L37.9497242,34.2209931 L37.0912237,34.2209931 L37.0912237,28.0632468 L37.5694159,28.0632468 L37.7534304,28.5808688 C38.3298572,28.1495465 38.9555768,27.9403138 39.6056796,27.9403138 C41.065341,27.9403138 41.6908851,28.6055258 41.6908851,29.7878314 L41.6908851,34.2209931 L40.8323846,34.2209931 L40.8323846,29.7501413 Z" id="Fill-6" fill="#173E2D" mask="url(#mask-2)"></path>
                            <path d="M45.2746426,30.6864753 C47.0163778,30.8463938 47.4335241,31.4376347 47.4335241,32.4475171 C47.4335241,33.3957568 46.8323632,34.3438204 44.9680102,34.3438204 C44.379304,34.3438204 43.5329074,34.1964065 43.1404951,34.0363118 L43.1404951,33.2967764 C43.520628,33.4327424 44.1093342,33.5803325 44.9802895,33.5803325 C46.2559364,33.5803325 46.5992314,33.0385818 46.5992314,32.4598456 C46.5992314,31.893614 46.4274962,31.4994535 45.2134213,31.4006491 C43.4348482,31.2405544 43.0666437,30.612328 43.0666437,29.7630687 C43.0666437,28.8884479 43.631142,27.9402081 45.3604225,27.9402081 C45.9370247,27.9402081 46.5873029,28.0136509 47.1268917,28.2478929 L47.1268917,28.9867238 C46.6485241,28.8266291 46.1699811,28.7036961 45.3481431,28.7036961 C44.1340683,28.7036961 43.8762023,29.1596754 43.8762023,29.7630687 C43.8762023,30.3048193 44.0970549,30.5876709 45.2746426,30.6864753" id="Fill-7" fill="#173E2D" mask="url(#mask-2)"></path>
                            <path d="M52.0593581,34.2943831 C51.912357,34.3320731 51.6669458,34.3436972 51.5074899,34.3436972 C50.4893581,34.3436972 49.5450777,33.8762699 49.5450777,32.6691311 L49.5450777,28.7407345 L48.3181972,28.7407345 L48.3181972,28.3590786 L49.5450777,28.0019036 L49.5450777,26.3391377 L50.4035782,26.0929194 L50.4035782,28.063194 L52.3047693,28.063194 L52.3047693,28.7407345 L50.4035782,28.7407345 L50.4035782,32.5712074 C50.4035782,33.3216624 50.8084453,33.6296994 51.5809905,33.6296994 C51.7407972,33.6296994 51.9000777,33.6173709 52.0593581,33.6050424 L52.0593581,34.2943831 Z" id="Fill-8" fill="#173E2D" mask="url(#mask-2)"></path>
                            <path d="M53.6679327,32.9893029 L53.6679327,28.0631763 L54.5018746,28.0631763 L54.5018746,33.0881073 C54.5018746,33.5192534 54.6369473,33.6421864 55.0170802,33.6421864 L55.0170802,34.3436796 C54.134021,34.3436796 53.6679327,33.9743521 53.6679327,32.9893029 M54.0850791,25.6004653 C54.4283741,25.6004653 54.6981685,25.8716929 54.6981685,26.2163632 C54.6981685,26.5608574 54.4283741,26.8315566 54.0850791,26.8315566 C53.7414333,26.8315566 53.4716389,26.5608574 53.4716389,26.2163632 C53.4716389,25.8716929 53.7414333,25.6004653 54.0850791,25.6004653" id="Fill-9" fill="#173E2D" mask="url(#mask-2)"></path>
                            <path d="M59.6055499,34.2943831 C59.4585488,34.3320731 59.2131377,34.3436972 59.0536818,34.3436972 C58.0355499,34.3436972 57.0910941,33.8762699 57.0910941,32.6691311 L57.0910941,28.7407345 L55.8647399,28.7407345 L55.8647399,28.3590786 L57.0910941,28.0019036 L57.0910941,26.3391377 L57.9497701,26.0929194 L57.9497701,28.063194 L59.8509611,28.063194 L59.8509611,28.7407345 L57.9497701,28.7407345 L57.9497701,32.5712074 C57.9497701,33.3216624 58.3544617,33.6296994 59.1271823,33.6296994 C59.2868136,33.6296994 59.4460941,33.6173709 59.6055499,33.6050424 L59.6055499,34.2943831 Z" id="Fill-10" fill="#173E2D" mask="url(#mask-2)"></path>
                            <path d="M61.8151627,32.5333412 C61.8151627,33.3346954 62.2812509,33.5802092 63.0415169,33.5802092 C63.8387962,33.5802092 64.2438387,33.4451238 64.6974722,33.1862247 L64.6974722,28.063194 L65.5563236,28.063194 L65.5563236,34.2209403 L65.0777806,34.2209403 L64.893766,33.7038467 C64.3173392,34.1344645 63.6919705,34.3436972 63.0415169,34.3436972 C61.5820308,34.3436972 60.9563113,33.6793658 60.9563113,32.496884 L60.9563113,28.063194 L61.8151627,28.063194 L61.8151627,32.5333412 Z" id="Fill-11" fill="#173E2D" mask="url(#mask-2)"></path>
                            <path d="M70.3418239,34.2943831 C70.1949982,34.3320731 69.9494116,34.3436972 69.7899558,34.3436972 C68.7719993,34.3436972 67.8275435,33.8762699 67.8275435,32.6691311 L67.8275435,28.7407345 L66.6011893,28.7407345 L66.6011893,28.3590786 L67.8275435,28.0019036 L67.8275435,26.3391377 L68.686044,26.0929194 L68.686044,28.063194 L70.5874105,28.063194 L70.5874105,28.7407345 L68.686044,28.7407345 L68.686044,32.5712074 C68.686044,33.3216624 69.0909111,33.6296994 69.8636317,33.6296994 C70.0234384,33.6296994 70.1827189,33.6173709 70.3418239,33.6050424 L70.3418239,34.2943831 Z" id="Fill-12" fill="#173E2D" mask="url(#mask-2)"></path>
                            <path d="M71.9503985,32.9893029 L71.9503985,28.0631763 L72.7845159,28.0631763 L72.7845159,33.0881073 C72.7845159,33.5192534 72.9194131,33.6421864 73.2997215,33.6421864 L73.2997215,34.3436796 C72.4164868,34.3436796 71.9503985,33.9743521 71.9503985,32.9893029 M72.3677203,25.6004653 C72.7110153,25.6004653 72.9806343,25.8716929 72.9806343,26.2163632 C72.9806343,26.5608574 72.7110153,26.8315566 72.3677203,26.8315566 C72.0240745,26.8315566 71.7542801,26.5608574 71.7542801,26.2163632 C71.7542801,25.8716929 72.0240745,25.6004653 72.3677203,25.6004653" id="Fill-13" fill="#173E2D" mask="url(#mask-2)"></path>
                            <path d="M77.1516419,28.7037137 C75.5323492,28.7037137 75.4346408,29.7500533 75.4346408,31.1417677 C75.4346408,32.533306 75.5323492,33.580174 77.1516419,33.580174 C78.746376,33.580174 78.8693447,32.533306 78.8693447,31.1417677 C78.8693447,29.7500533 78.746376,28.7037137 77.1516419,28.7037137 M77.1516419,34.3436619 C75.0545078,34.3436619 74.5759648,33.0262709 74.5759648,31.1417677 C74.5759648,29.2577929 75.0545078,27.9402257 77.1516419,27.9402257 C79.261757,27.9402257 79.7281961,29.2577929 79.7281961,31.1417677 C79.7281961,33.0262709 79.261757,34.3436619 77.1516419,34.3436619" id="Fill-14" fill="#173E2D" mask="url(#mask-2)"></path>
                            <path d="M84.9435782,29.7501413 C84.9435782,28.9501962 84.4773145,28.7038018 83.7166978,28.7038018 C82.9188922,28.7038018 82.5145514,28.8395917 82.0603916,29.0977862 L82.0603916,34.2209931 L81.2024173,34.2209931 L81.2024173,28.0632468 L81.6802587,28.0632468 L81.8642732,28.5808688 C82.4407,28.1495465 83.066595,27.9403138 83.7166978,27.9403138 C85.1761838,27.9403138 85.8019034,28.6055258 85.8019034,29.7878314 L85.8019034,34.2209931 L84.9435782,34.2209931 L84.9435782,29.7501413 Z" id="Fill-15" fill="#173E2D" mask="url(#mask-2)"></path>
                            <path d="M89.2754275,31.1054514 C88.4041213,31.1910466 88.0239884,31.6470259 88.0239884,32.3617282 C88.0239884,32.9158073 88.1587102,33.5803149 89.3247202,33.5803149 C89.9865761,33.5803149 90.4282811,33.3957392 90.9555906,33.0880544 L90.9555906,30.9453567 L89.2754275,31.1054514 Z M89.4955783,28.7036785 C88.6742666,28.7036785 88.1341515,28.8512685 87.6561347,29.0111871 L87.6561347,28.2725323 C88.1957236,28.0386426 88.9073984,27.9401905 89.4955783,27.9401905 C91.335899,27.9401905 91.814442,28.7772974 91.814442,30.008741 L91.814442,34.2208698 L91.335899,34.2208698 L91.1518845,33.7287855 C90.6000163,34.134394 89.9129001,34.3438028 89.2999861,34.3438028 C87.6924465,34.3438028 87.1533839,33.3957392 87.1533839,32.3617282 C87.1533839,31.3146841 87.7299861,30.5381631 89.3364733,30.4400633 L90.9555906,30.3417873 L90.9555906,29.9971169 C90.9555906,29.0978391 90.6370297,28.7036785 89.4955783,28.7036785 Z" id="Fill-16" fill="#173E2D" mask="url(#mask-2)"></path>
                            <path d="M93.6072943,32.9893029 L93.6072943,24.9847435 L94.4408854,24.9847435 L94.4408854,33.0881073 C94.4408854,33.5192534 94.5763088,33.6421864 94.9557401,33.6421864 L94.9557401,34.3436796 C94.0730317,34.3436796 93.6072943,33.9743521 93.6072943,32.9893029" id="Fill-17" fill="#173E2D" mask="url(#mask-2)"></path>
                            <path d="M111.518188,9.78851473 C110.749677,9.78851473 110.619165,10.5777165 110.619165,11.3670944 C110.619165,12.1709142 110.749677,13.0187646 111.546956,13.0187646 C112.329851,13.0187646 112.445979,12.1709142 112.445979,11.454803 C112.445979,10.5777165 112.329851,9.78851473 111.518188,9.78851473 Z M112.605259,15.2990134 L112.605259,13.9102931 L112.57649,13.9102931 C112.069179,15.0506817 111.329788,15.4744308 110.140798,15.4744308 C107.719665,15.4744308 106.820993,13.5742527 106.820993,11.3670944 C106.820993,9.30629325 107.763169,7.50826585 110.039405,7.50826585 C111.0107,7.50826585 111.750092,7.84448236 112.315467,8.66292034 L112.344586,8.66292034 L112.344586,4.33631232 L115.997862,4.33631232 L115.997862,15.2990134 L112.605259,15.2990134 Z" id="Fill-18" fill="#173E2D" mask="url(#mask-2)"></path>
                            <path d="M38.902074,10.6438502 L41.1484896,10.6438502 L40.0468583,7.31233035 L40.018265,7.31233035 L38.902074,10.6438502 Z M37.4236427,5.12771561 L42.773922,5.12771561 L46.3817645,15.2873013 L42.3087108,15.2873013 L41.6424695,13.0907103 L38.3651164,13.0907103 L37.7420282,15.2873013 L33.8724606,15.2873013 L37.4236427,5.12771561 Z" id="Fill-19" fill="#173E2D" mask="url(#mask-2)"></path>
                            <path d="M46.9629627,7.70342641 L50.4127526,7.70342641 L50.4127526,9.01359644 L50.442223,9.01359644 C50.8777884,7.95422385 51.875747,7.53082705 53.0205314,7.53082705 C54.036032,7.53082705 55.0941593,7.92252192 55.385004,8.8265551 L55.4137727,8.8265551 C55.660061,7.95422385 56.9353571,7.53082705 57.8347303,7.53082705 C60.5009236,7.53082705 60.5009236,9.26280878 60.5009236,10.7466349 L60.5009236,15.287407 L56.8485247,15.287407 L56.8485247,10.9204671 C56.8485247,10.4838612 56.8485247,9.88768891 56.1963169,9.88768891 C55.5576163,9.88768891 55.5576163,10.4838612 55.5576163,10.9204671 L55.5576163,15.287407 L51.9059191,15.287407 L51.9059191,10.9204671 C51.9059191,10.4838612 51.9059191,9.88768891 51.2663415,9.88768891 C50.6160632,9.88768891 50.6160632,10.4838612 50.6160632,10.9204671 L50.6160632,15.287407 L46.9629627,15.287407 L46.9629627,7.70342641 Z" id="Fill-20" fill="#173E2D" mask="url(#mask-2)"></path>
                            <path d="M66.8500562,10.7762762 C66.8500562,10.1934892 66.7605925,9.27747973 65.9352461,9.27747973 C65.0965679,9.27747973 64.9078171,10.1801039 64.9509702,10.7762762 L66.8500562,10.7762762 Z M64.9653545,12.3751099 C65.0214886,13.32106 65.9064774,13.54086 66.9795154,13.54086 C67.9806316,13.54086 68.8789523,13.3661472 69.4576596,13.0611042 L69.4576596,15.0266235 C68.4888204,15.3297291 67.3263188,15.4614682 66.052426,15.4614682 C62.9929434,15.4614682 61.3704931,13.9792272 61.3704931,11.357302 C61.3704931,8.81040473 62.9929434,7.53070377 66.052426,7.53070377 C68.9794674,7.53070377 70.0093523,9.36413165 70.0093523,11.9235336 L70.0093523,12.3751099 L64.9653545,12.3751099 Z" id="Fill-21" fill="#173E2D" mask="url(#mask-2)"></path>
                            <path d="M74.4307705,7.70342641 L74.4307705,9.42202288 L74.4602409,9.42202288 C74.8947537,8.34556647 75.6192342,7.53082705 76.7654219,7.53082705 C76.9829415,7.53082705 77.2137928,7.55865429 77.3597415,7.60127577 L77.3597415,10.6437798 C77.1850241,10.5729788 76.8687437,10.5289484 76.5322901,10.5289484 C75.517842,10.5289484 74.6637269,11.4160738 74.6637269,12.5363846 L74.6637269,15.287407 L71.0108018,15.287407 L71.0108018,7.70342641 L74.4307705,7.70342641 Z" id="Fill-22" fill="#173E2D" mask="url(#mask-2)"></path>
                            <path d="M78.4205352,15.2873718 L82.0734603,15.2873718 L82.0734603,7.70339119 L78.4205352,7.70339119 L78.4205352,15.2873718 Z M78.4205352,6.9043266 L82.0734603,6.9043266 L82.0734603,4.37187131 L78.4205352,4.37187131 L78.4205352,6.9043266 Z" id="Fill-23" fill="#173E2D" mask="url(#mask-2)"></path>
                            <path d="M84.3148765,7.70342641 L84.3148765,5.95735494 L87.9671,4.83774869 L87.9671,7.70342641 L89.6198978,7.70342641 L89.6198978,9.88768891 L87.9671,9.88768891 L87.9671,12.0270404 C87.9671,12.6684759 88.2861872,13.0173732 88.7636777,13.0173732 C89.0975,13.0173732 89.3581726,12.9719338 89.6198978,12.8852819 L89.6198978,15.0684876 C88.8229693,15.3014968 88.0099022,15.4614154 87.1129849,15.4614154 C85.2286341,15.4614154 84.3148765,14.5165219 84.3148765,12.5082051 L84.3148765,9.88768891 L83.0232665,9.88768891 L83.0232665,7.70342641 L84.3148765,7.70342641 Z" id="Fill-24" fill="#173E2D" mask="url(#mask-2)"></path>
                            <path d="M94.0872933,7.70342641 L94.0872933,9.42202288 L94.1143078,9.42202288 C94.5495223,8.34556647 95.2761078,7.53082705 96.4201905,7.53082705 C96.6366575,7.53082705 96.8685615,7.55865429 97.013633,7.60127577 L97.013633,10.6437798 C96.8408453,10.5729788 96.5215827,10.5289484 96.1868832,10.5289484 C95.1726106,10.5289484 94.317443,11.4160738 94.317443,12.5363846 L94.317443,15.287407 L90.664167,15.287407 L90.664167,7.70342641 L94.0872933,7.70342641 Z" id="Fill-25" fill="#173E2D" mask="url(#mask-2)"></path>
                            <path d="M102.637934,11.9551298 L102.275519,11.9551298 C101.520691,11.9551298 100.651139,12.0269875 100.651139,12.8133713 C100.651139,13.3366292 100.944088,13.5409305 101.508762,13.5409305 C102.261485,13.5409305 102.637934,12.8419031 102.637934,12.1876106 L102.637934,11.9551298 Z M98.1884315,7.96790851 C99.275503,7.66180883 99.9275354,7.53077421 101.349306,7.53077421 C103.435915,7.53077421 105.973702,7.90908383 105.973702,10.674196 L105.973702,15.2873542 L102.580748,15.2873542 L102.580748,14.1948707 L102.550926,14.1948707 C102.044492,15.0531122 101.115297,15.4613625 100.086816,15.4613625 C98.681008,15.4613625 97.3185287,14.8211598 97.3185287,13.2355353 C97.3185287,10.9066768 99.4046114,10.4397779 101.218093,10.4397779 C101.724528,10.4397779 102.304287,10.5130446 102.637934,10.5429853 C102.622497,9.56815114 101.623486,9.45014954 100.710781,9.45014954 C99.8412293,9.45014954 98.9130874,9.72754136 98.1884315,10.0921135 L98.1884315,7.96790851 Z" id="Fill-26" fill="#173E2D" mask="url(#mask-2)"></path>
                            <path d="M122.350311,10.7432534 C122.350311,10.1604663 122.263303,9.24445689 121.4355,9.24445689 C120.596822,9.24445689 120.407019,10.1470811 120.450874,10.7432534 L122.350311,10.7432534 Z M120.464205,12.342087 C120.522795,13.2880372 121.409188,13.5078372 122.47977,13.5078372 C123.480535,13.5078372 124.378856,13.3331244 124.959317,13.0280814 L124.959317,14.9936006 C123.988022,15.2967063 122.828678,15.4284454 121.552329,15.4284454 C118.494776,15.4284454 116.870923,13.9462043 116.870923,11.3242792 C116.870923,8.77738189 118.494776,7.49768093 121.552329,7.49768093 C124.480774,7.49768093 125.510659,9.33110881 125.510659,11.8905107 L125.510659,12.342087 L120.464205,12.342087 Z" id="Fill-27" fill="#173E2D" mask="url(#mask-2)"></path>
                        </g>
                    </g>
                </g>
            </g>
        </g>
    </g>
</svg>