<?xml version="1.0" encoding="UTF-8"?>
<svg width="126px" height="35px" viewBox="0 0 126 35" version="1.1" xmlns="http://www.w3.org/2000/svg" xmlns:xlink="http://www.w3.org/1999/xlink">
    <!-- Generator: Sketch 51.2 (57519) - http://www.bohemiancoding.com/sketch -->
    <title>tdai-logo</title>
    <desc>Created with Sketch.</desc>
    <defs></defs>
    <g id="Page-1" stroke="none" stroke-width="1" fill="none" fill-rule="evenodd">
        <g id="tdai-logo" fill-rule="nonzero">
            <g id="td">
                <polygon id="Fill-1" fill="#6FB656" points="0 24.53125 27.475 24.53125 27.475 0 0 0"></polygon>
                <path d="M18.1640931,19.614878 C21.8670126,19.614878 24.6100394,18.803661 24.6100394,12.1732038 C24.6100394,7.13876232 22.7725255,5.13907546 18.9112026,5.13907546 L2.90509642,5.13907546 L2.90509642,7.20234229 L7.60772883,7.20234229 L7.60772883,19.614878 L10.8133355,19.614878 L10.8133355,7.20234229 L17.914121,7.20234229 C20.0935266,7.20234229 21.1213065,8.32793668 21.1213065,12.2042013 C21.1213065,16.0524625 20.219302,17.5528441 18.0697177,17.5528441 L14.9562059,17.5528441 L14.9562059,7.95209277 L11.7181467,7.95209277 L11.7181467,19.614878 L18.1640931,19.614878 Z" id="Fill-2" fill="#FEFEFE"></path>
            </g>
            <g id="ameritrade" transform="translate(33.000000, 4.000000)" fill="#173E2D">
                <path d="M5.902074,6.6438502 L8.1484896,6.6438502 L7.0468583,3.31233035 L7.018265,3.31233035 L5.902074,6.6438502 Z M4.4236427,1.12771561 L9.773922,1.12771561 L13.3817645,11.2873013 L9.3087108,11.2873013 L8.6424695,9.0907103 L5.3651164,9.0907103 L4.7420282,11.2873013 L0.8724606,11.2873013 L4.4236427,1.12771561 Z" id="Fill-19"></path>
                <path d="M13.9629627,3.70342641 L17.4127526,3.70342641 L17.4127526,5.01359644 L17.442223,5.01359644 C17.8777884,3.95422385 18.875747,3.53082705 20.0205314,3.53082705 C21.036032,3.53082705 22.0941593,3.92252192 22.385004,4.8265551 L22.4137727,4.8265551 C22.660061,3.95422385 23.9353571,3.53082705 24.8347303,3.53082705 C27.5009236,3.53082705 27.5009236,5.26280878 27.5009236,6.7466349 L27.5009236,11.287407 L23.8485247,11.287407 L23.8485247,6.9204671 C23.8485247,6.4838612 23.8485247,5.88768891 23.1963169,5.88768891 C22.5576163,5.88768891 22.5576163,6.4838612 22.5576163,6.9204671 L22.5576163,11.287407 L18.9059191,11.287407 L18.9059191,6.9204671 C18.9059191,6.4838612 18.9059191,5.88768891 18.2663415,5.88768891 C17.6160632,5.88768891 17.6160632,6.4838612 17.6160632,6.9204671 L17.6160632,11.287407 L13.9629627,11.287407 L13.9629627,3.70342641 Z" id="Fill-20"></path>
                <path d="M33.8500562,6.7762762 C33.8500562,6.1934892 33.7605925,5.27747973 32.9352461,5.27747973 C32.0965679,5.27747973 31.9078171,6.1801039 31.9509702,6.7762762 L33.8500562,6.7762762 Z M31.9653545,8.3751099 C32.0214886,9.32106 32.9064774,9.54086 33.9795154,9.54086 C34.9806316,9.54086 35.8789523,9.3661472 36.4576596,9.0611042 L36.4576596,11.0266235 C35.4888204,11.3297291 34.3263188,11.4614682 33.052426,11.4614682 C29.9929434,11.4614682 28.3704931,9.9792272 28.3704931,7.357302 C28.3704931,4.81040473 29.9929434,3.53070377 33.052426,3.53070377 C35.9794674,3.53070377 37.0093523,5.36413165 37.0093523,7.9235336 L37.0093523,8.3751099 L31.9653545,8.3751099 Z" id="Fill-21"></path>
                <path d="M41.4307705,3.70342641 L41.4307705,5.42202288 L41.4602409,5.42202288 C41.8947537,4.34556647 42.6192342,3.53082705 43.7654219,3.53082705 C43.9829415,3.53082705 44.2137928,3.55865429 44.3597415,3.60127577 L44.3597415,6.6437798 C44.1850241,6.5729788 43.8687437,6.5289484 43.5322901,6.5289484 C42.517842,6.5289484 41.6637269,7.4160738 41.6637269,8.5363846 L41.6637269,11.287407 L38.0108018,11.287407 L38.0108018,3.70342641 L41.4307705,3.70342641 Z" id="Fill-22"></path>
                <path d="M45.4205352,11.2873718 L49.0734603,11.2873718 L49.0734603,3.70339119 L45.4205352,3.70339119 L45.4205352,11.2873718 Z M45.4205352,2.9043266 L49.0734603,2.9043266 L49.0734603,0.37187131 L45.4205352,0.37187131 L45.4205352,2.9043266 Z" id="Fill-23"></path>
                <path d="M51.3148765,3.70342641 L51.3148765,1.95735494 L54.9671,0.83774869 L54.9671,3.70342641 L56.6198978,3.70342641 L56.6198978,5.88768891 L54.9671,5.88768891 L54.9671,8.0270404 C54.9671,8.6684759 55.2861872,9.0173732 55.7636777,9.0173732 C56.0975,9.0173732 56.3581726,8.9719338 56.6198978,8.8852819 L56.6198978,11.0684876 C55.8229693,11.3014968 55.0099022,11.4614154 54.1129849,11.4614154 C52.2286341,11.4614154 51.3148765,10.5165219 51.3148765,8.5082051 L51.3148765,5.88768891 L50.0232665,5.88768891 L50.0232665,3.70342641 L51.3148765,3.70342641 Z" id="Fill-24"></path>
                <path d="M61.0872933,3.70342641 L61.0872933,5.42202288 L61.1143078,5.42202288 C61.5495223,4.34556647 62.2761078,3.53082705 63.4201905,3.53082705 C63.6366575,3.53082705 63.8685615,3.55865429 64.013633,3.60127577 L64.013633,6.6437798 C63.8408453,6.5729788 63.5215827,6.5289484 63.1868832,6.5289484 C62.1726106,6.5289484 61.317443,7.4160738 61.317443,8.5363846 L61.317443,11.287407 L57.664167,11.287407 L57.664167,3.70342641 L61.0872933,3.70342641 Z" id="Fill-25"></path>
                <path d="M69.637934,7.9551298 L69.275519,7.9551298 C68.520691,7.9551298 67.651139,8.0269875 67.651139,8.8133713 C67.651139,9.3366292 67.944088,9.5409305 68.508762,9.5409305 C69.261485,9.5409305 69.637934,8.8419031 69.637934,8.1876106 L69.637934,7.9551298 Z M65.1884315,3.96790851 C66.275503,3.66180883 66.9275354,3.53077421 68.349306,3.53077421 C70.435915,3.53077421 72.973702,3.90908383 72.973702,6.674196 L72.973702,11.2873542 L69.580748,11.2873542 L69.580748,10.1948707 L69.550926,10.1948707 C69.044492,11.0531122 68.115297,11.4613625 67.086816,11.4613625 C65.681008,11.4613625 64.3185287,10.8211598 64.3185287,9.2355353 C64.3185287,6.9066768 66.4046114,6.4397779 68.218093,6.4397779 C68.724528,6.4397779 69.304287,6.5130446 69.637934,6.5429853 C69.622497,5.56815114 68.623486,5.45014954 67.710781,5.45014954 C66.8412293,5.45014954 65.9130874,5.72754136 65.1884315,6.0921135 L65.1884315,3.96790851 Z" id="Fill-26"></path>
                <path d="M78.518188,5.78851473 C77.749677,5.78851473 77.619165,6.5777165 77.619165,7.3670944 C77.619165,8.1709142 77.749677,9.0187646 78.546956,9.0187646 C79.329851,9.0187646 79.445979,8.1709142 79.445979,7.454803 C79.445979,6.5777165 79.329851,5.78851473 78.518188,5.78851473 Z M79.605259,11.2990134 L79.605259,9.9102931 L79.57649,9.9102931 C79.069179,11.0506817 78.329788,11.4744308 77.140798,11.4744308 C74.719665,11.4744308 73.820993,9.5742527 73.820993,7.3670944 C73.820993,5.30629325 74.763169,3.50826585 77.039405,3.50826585 C78.0107,3.50826585 78.750092,3.84448236 79.315467,4.66292034 L79.344586,4.66292034 L79.344586,0.33631232 L82.997862,0.33631232 L82.997862,11.2990134 L79.605259,11.2990134 Z" id="Fill-18"></path>
                <path d="M89.350311,6.7432534 C89.350311,6.1604663 89.263303,5.24445689 88.4355,5.24445689 C87.596822,5.24445689 87.407019,6.1470811 87.450874,6.7432534 L89.350311,6.7432534 Z M87.464205,8.342087 C87.522795,9.2880372 88.409188,9.5078372 89.47977,9.5078372 C90.480535,9.5078372 91.378856,9.3331244 91.959317,9.0280814 L91.959317,10.9936006 C90.988022,11.2967063 89.828678,11.4284454 88.552329,11.4284454 C85.494776,11.4284454 83.870923,9.9462043 83.870923,7.3242792 C83.870923,4.77738189 85.494776,3.49768093 88.552329,3.49768093 C91.480774,3.49768093 92.510659,5.33110881 92.510659,7.8905107 L92.510659,8.342087 L87.464205,8.342087 Z" id="Fill-27"></path>
            </g>
            <g id="institutional" transform="translate(34.000000, 24.000000)" fill="#173E2D">
                <polygon id="Fill-4" points="0.2689777 10.220817 1.1274782 10.220817 1.1274782 0.9846378 0.2689777 0.9846378"></polygon>
                <path d="M6.8323846,5.7501413 C6.8323846,4.9501962 6.3662963,4.7038018 5.6056796,4.7038018 C4.8082248,4.7038018 4.4037086,4.8395917 3.9497242,5.0977862 L3.9497242,10.2209931 L3.0912237,10.2209931 L3.0912237,4.0632468 L3.5694159,4.0632468 L3.7534304,4.5808688 C4.3298572,4.1495465 4.9555768,3.9403138 5.6056796,3.9403138 C7.065341,3.9403138 7.6908851,4.6055258 7.6908851,5.7878314 L7.6908851,10.2209931 L6.8323846,10.2209931 L6.8323846,5.7501413 Z" id="Fill-6"></path>
                <path d="M11.2746426,6.6864753 C13.0163778,6.8463938 13.4335241,7.4376347 13.4335241,8.4475171 C13.4335241,9.3957568 12.8323632,10.3438204 10.9680102,10.3438204 C10.379304,10.3438204 9.5329074,10.1964065 9.1404951,10.0363118 L9.1404951,9.2967764 C9.520628,9.4327424 10.1093342,9.5803325 10.9802895,9.5803325 C12.2559364,9.5803325 12.5992314,9.0385818 12.5992314,8.4598456 C12.5992314,7.893614 12.4274962,7.4994535 11.2134213,7.4006491 C9.4348482,7.2405544 9.0666437,6.612328 9.0666437,5.7630687 C9.0666437,4.8884479 9.631142,3.9402081 11.3604225,3.9402081 C11.9370247,3.9402081 12.5873029,4.0136509 13.1268917,4.2478929 L13.1268917,4.9867238 C12.6485241,4.8266291 12.1699811,4.7036961 11.3481431,4.7036961 C10.1340683,4.7036961 9.8762023,5.1596754 9.8762023,5.7630687 C9.8762023,6.3048193 10.0970549,6.5876709 11.2746426,6.6864753" id="Fill-7"></path>
                <path d="M18.0593581,10.2943831 C17.912357,10.3320731 17.6669458,10.3436972 17.5074899,10.3436972 C16.4893581,10.3436972 15.5450777,9.8762699 15.5450777,8.6691311 L15.5450777,4.7407345 L14.3181972,4.7407345 L14.3181972,4.3590786 L15.5450777,4.0019036 L15.5450777,2.3391377 L16.4035782,2.0929194 L16.4035782,4.063194 L18.3047693,4.063194 L18.3047693,4.7407345 L16.4035782,4.7407345 L16.4035782,8.5712074 C16.4035782,9.3216624 16.8084453,9.6296994 17.5809905,9.6296994 C17.7407972,9.6296994 17.9000777,9.6173709 18.0593581,9.6050424 L18.0593581,10.2943831 Z" id="Fill-8"></path>
                <path d="M19.6679327,8.9893029 L19.6679327,4.0631763 L20.5018746,4.0631763 L20.5018746,9.0881073 C20.5018746,9.5192534 20.6369473,9.6421864 21.0170802,9.6421864 L21.0170802,10.3436796 C20.134021,10.3436796 19.6679327,9.9743521 19.6679327,8.9893029 M20.0850791,1.6004653 C20.4283741,1.6004653 20.6981685,1.8716929 20.6981685,2.2163632 C20.6981685,2.5608574 20.4283741,2.8315566 20.0850791,2.8315566 C19.7414333,2.8315566 19.4716389,2.5608574 19.4716389,2.2163632 C19.4716389,1.8716929 19.7414333,1.6004653 20.0850791,1.6004653" id="Fill-9"></path>
                <path d="M25.6055499,10.2943831 C25.4585488,10.3320731 25.2131377,10.3436972 25.0536818,10.3436972 C24.0355499,10.3436972 23.0910941,9.8762699 23.0910941,8.6691311 L23.0910941,4.7407345 L21.8647399,4.7407345 L21.8647399,4.3590786 L23.0910941,4.0019036 L23.0910941,2.3391377 L23.9497701,2.0929194 L23.9497701,4.063194 L25.8509611,4.063194 L25.8509611,4.7407345 L23.9497701,4.7407345 L23.9497701,8.5712074 C23.9497701,9.3216624 24.3544617,9.6296994 25.1271823,9.6296994 C25.2868136,9.6296994 25.4460941,9.6173709 25.6055499,9.6050424 L25.6055499,10.2943831 Z" id="Fill-10"></path>
                <path d="M27.8151627,8.5333412 C27.8151627,9.3346954 28.2812509,9.5802092 29.0415169,9.5802092 C29.8387962,9.5802092 30.2438387,9.4451238 30.6974722,9.1862247 L30.6974722,4.063194 L31.5563236,4.063194 L31.5563236,10.2209403 L31.0777806,10.2209403 L30.893766,9.7038467 C30.3173392,10.1344645 29.6919705,10.3436972 29.0415169,10.3436972 C27.5820308,10.3436972 26.9563113,9.6793658 26.9563113,8.496884 L26.9563113,4.063194 L27.8151627,4.063194 L27.8151627,8.5333412 Z" id="Fill-11"></path>
                <path d="M36.3418239,10.2943831 C36.1949982,10.3320731 35.9494116,10.3436972 35.7899558,10.3436972 C34.7719993,10.3436972 33.8275435,9.8762699 33.8275435,8.6691311 L33.8275435,4.7407345 L32.6011893,4.7407345 L32.6011893,4.3590786 L33.8275435,4.0019036 L33.8275435,2.3391377 L34.686044,2.0929194 L34.686044,4.063194 L36.5874105,4.063194 L36.5874105,4.7407345 L34.686044,4.7407345 L34.686044,8.5712074 C34.686044,9.3216624 35.0909111,9.6296994 35.8636317,9.6296994 C36.0234384,9.6296994 36.1827189,9.6173709 36.3418239,9.6050424 L36.3418239,10.2943831 Z" id="Fill-12"></path>
                <path d="M37.9503985,8.9893029 L37.9503985,4.0631763 L38.7845159,4.0631763 L38.7845159,9.0881073 C38.7845159,9.5192534 38.9194131,9.6421864 39.2997215,9.6421864 L39.2997215,10.3436796 C38.4164868,10.3436796 37.9503985,9.9743521 37.9503985,8.9893029 M38.3677203,1.6004653 C38.7110153,1.6004653 38.9806343,1.8716929 38.9806343,2.2163632 C38.9806343,2.5608574 38.7110153,2.8315566 38.3677203,2.8315566 C38.0240745,2.8315566 37.7542801,2.5608574 37.7542801,2.2163632 C37.7542801,1.8716929 38.0240745,1.6004653 38.3677203,1.6004653" id="Fill-13"></path>
                <path d="M43.1516419,4.7037137 C41.5323492,4.7037137 41.4346408,5.7500533 41.4346408,7.1417677 C41.4346408,8.533306 41.5323492,9.580174 43.1516419,9.580174 C44.746376,9.580174 44.8693447,8.533306 44.8693447,7.1417677 C44.8693447,5.7500533 44.746376,4.7037137 43.1516419,4.7037137 M43.1516419,10.3436619 C41.0545078,10.3436619 40.5759648,9.0262709 40.5759648,7.1417677 C40.5759648,5.2577929 41.0545078,3.9402257 43.1516419,3.9402257 C45.261757,3.9402257 45.7281961,5.2577929 45.7281961,7.1417677 C45.7281961,9.0262709 45.261757,10.3436619 43.1516419,10.3436619" id="Fill-14"></path>
                <path d="M50.9435782,5.7501413 C50.9435782,4.9501962 50.4773145,4.7038018 49.7166978,4.7038018 C48.9188922,4.7038018 48.5145514,4.8395917 48.0603916,5.0977862 L48.0603916,10.2209931 L47.2024173,10.2209931 L47.2024173,4.0632468 L47.6802587,4.0632468 L47.8642732,4.5808688 C48.4407,4.1495465 49.066595,3.9403138 49.7166978,3.9403138 C51.1761838,3.9403138 51.8019034,4.6055258 51.8019034,5.7878314 L51.8019034,10.2209931 L50.9435782,10.2209931 L50.9435782,5.7501413 Z" id="Fill-15"></path>
                <path d="M55.2754275,7.1054514 C54.4041213,7.1910466 54.0239884,7.6470259 54.0239884,8.3617282 C54.0239884,8.9158073 54.1587102,9.5803149 55.3247202,9.5803149 C55.9865761,9.5803149 56.4282811,9.3957392 56.9555906,9.0880544 L56.9555906,6.9453567 L55.2754275,7.1054514 Z M55.4955783,4.7036785 C54.6742666,4.7036785 54.1341515,4.8512685 53.6561347,5.0111871 L53.6561347,4.2725323 C54.1957236,4.0386426 54.9073984,3.9401905 55.4955783,3.9401905 C57.335899,3.9401905 57.814442,4.7772974 57.814442,6.008741 L57.814442,10.2208698 L57.335899,10.2208698 L57.1518845,9.7287855 C56.6000163,10.134394 55.9129001,10.3438028 55.2999861,10.3438028 C53.6924465,10.3438028 53.1533839,9.3957392 53.1533839,8.3617282 C53.1533839,7.3146841 53.7299861,6.5381631 55.3364733,6.4400633 L56.9555906,6.3417873 L56.9555906,5.9971169 C56.9555906,5.0978391 56.6370297,4.7036785 55.4955783,4.7036785 Z" id="Fill-16"></path>
                <path d="M59.6072943,8.9893029 L59.6072943,0.9847435 L60.4408854,0.9847435 L60.4408854,9.0881073 C60.4408854,9.5192534 60.5763088,9.6421864 60.9557401,9.6421864 L60.9557401,10.3436796 C60.0730317,10.3436796 59.6072943,9.9743521 59.6072943,8.9893029" id="Fill-17"></path>
            </g>
        </g>
    </g>
</svg>