<?xml version="1.0" encoding="UTF-8"?>
<svg width="24px" height="20px" viewBox="0 0 24 20" version="1.1" xmlns="http://www.w3.org/2000/svg" xmlns:xlink="http://www.w3.org/1999/xlink">
    <!-- Generator: Sketch 51.2 (57519) - http://www.bohemiancoding.com/sketch -->
    <title>twitter</title>
    <desc>Created with Sketch.</desc>
    <defs></defs>
    <g id="Hero-Explorations---Desktop-^BD" stroke="none" stroke-width="1" fill="none" fill-rule="evenodd">
        <g id="003-twitter" fill="#000000" fill-rule="nonzero">
            <path d="M23.4577235,2.26788424 C23.0819035,2.43457235 22.6955113,2.57525402 22.3007074,2.68946624 C22.7681286,2.16084887 23.1245016,1.53885531 23.342045,0.858212219 C23.3908167,0.705646302 23.3402701,0.538649518 23.2148682,0.438868167 C23.0896206,0.339009646 22.9156013,0.327048232 22.7776977,0.408771704 C21.9392412,0.906057878 21.0346495,1.26343408 20.0861479,1.47241158 C19.130701,0.538803859 17.8330032,0.00748553055 16.4914727,0.00748553055 C13.6597042,0.00748553055 11.3558585,2.31125402 11.3558585,5.14294534 C11.3558585,5.36596785 11.3699807,5.58775563 11.3979164,5.80645659 C7.88396141,5.49792926 4.61710611,3.77077814 2.37376206,1.0189582 C2.2938135,0.920874598 2.17064952,0.868012862 2.04455305,0.878122186 C1.91837942,0.888 1.80501608,0.959151125 1.74127331,1.06850161 C1.28627653,1.84923473 1.04573633,2.74217363 1.04573633,3.65070096 C1.04573633,4.88812862 1.48753698,6.06219936 2.26796141,6.97960129 C2.03066238,6.89741479 1.80038585,6.79470096 1.5806045,6.67269453 C1.46261093,6.60702251 1.31861093,6.60802572 1.20138907,6.67524116 C1.08409003,6.74245659 1.01054662,6.8660836 1.00745981,7.001209 C1.00691961,7.02397428 1.00691961,7.04673955 1.00691961,7.0698135 C1.00691961,8.91688746 2.00102894,10.5798328 3.52090032,11.4861994 C3.39032797,11.4731576 3.2598328,11.4542508 3.1301865,11.4294791 C2.99652733,11.4039357 2.85908682,11.4507781 2.76895177,11.5527203 C2.67866238,11.6545852 2.64879743,11.7965788 2.69039228,11.9262251 C3.25296463,13.6826238 4.70137621,14.9745338 6.45237299,15.3684116 C5.00010289,16.2780193 3.33931833,16.7544695 1.59588424,16.7544695 C1.23210289,16.7544695 0.866237942,16.7330932 0.508167203,16.6907267 C0.330289389,16.669582 0.160205788,16.7746109 0.0996270096,16.9437685 C0.0390482315,17.1130032 0.103254019,17.3016849 0.254585209,17.3986881 C2.49430225,18.8347524 5.08406431,19.5938006 7.74374277,19.5938006 C12.9723473,19.5938006 16.2432154,17.1282058 18.0663666,15.0598071 C20.3398071,12.4806945 21.6436785,9.06690675 21.6436785,5.69386495 C21.6436785,5.55295177 21.6415177,5.41064952 21.6371961,5.26881029 C22.5341479,4.59302894 23.3063923,3.77517685 23.934791,2.83516399 C24.0302508,2.69239871 24.01991,2.50371704 23.9093248,2.37229582 C23.7988939,2.24079743 23.6148424,2.19827653 23.4577235,2.26788424 Z" id="twitter"></path>
        </g>
    </g>
</svg>