<!-- <?xml version="1.0" encoding="UTF-8"?> -->
<svg width="24px" height="25px" viewBox="0 0 24 25" version="1.1" xmlns="http://www.w3.org/2000/svg" xmlns:xlink="http://www.w3.org/1999/xlink">
    <!-- Generator: Sketch 51.2 (57519) - http://www.bohemiancoding.com/sketch -->
    <title>youtube</title>
    <desc>Created with Sketch.</desc>
    <defs></defs>
    <g id="Symbols" stroke="none" stroke-width="1" fill="none" fill-rule="evenodd" opacity="0.64">
        <g id="sidebar-nav" transform="translate(-218.000000, -707.000000)">
            <g id="social-hashtag" transform="translate(90.000000, 707.000000)">
                <g id="social-icons">
                    <g id="youtube" transform="translate(128.000000, 0.000000)">
                        <rect id="Rectangle" x="0" y="0" width="24" height="24"></rect>
                        <circle id="Oval" stroke="#4A4A4A" cx="12" cy="12.2780795" r="11.5"></circle>
                        <path d="M8.68664261,15.2821001 L8.69570509,13.0723355 L9.10869511,13.0680052 L9.52125358,13.0628088 L9.51650657,12.7224453 L9.51132801,12.3816487 L8.31939652,12.3768854 L7.12832812,12.372122 L7.12832812,12.7176819 L7.12832812,13.0628088 L7.53139257,13.0680052 L7.93445702,13.0723355 L7.93920404,15.2639127 C7.94136177,16.469042 7.94740342,17.4658827 7.95215043,17.4784406 C7.95862363,17.4961949 8.04234365,17.5005253 8.31896497,17.496628 L8.67758013,17.4918646 L8.68664261,15.2821001 Z M15.5616102,15.1266414 C15.5447799,15.0824721 15.5680834,14.5719268 15.5905239,14.4978783 C15.642741,14.3237993 15.7536484,14.2389249 15.9284248,14.2389249 C16.073856,14.2389249 16.1662069,14.2952191 16.2283496,14.4216646 C16.2676204,14.5017756 16.2715043,14.5359852 16.2775459,14.8321793 L16.2835876,15.1547885 L15.9275617,15.1547885 C15.6215952,15.1547885 15.5706727,15.1508912 15.5616102,15.1266414 L15.5616102,15.1266414 Z M16.2261919,17.5074538 C16.5748815,17.4091554 16.816116,17.1701215 16.9071723,16.8327892 C16.9222764,16.7751959 16.9399698,16.6110766 16.9460115,16.468609 L16.9563686,16.2096555 L16.6206254,16.2096555 L16.2844507,16.2096555 L16.2762513,16.4417609 C16.2667573,16.7054777 16.2395698,16.7959815 16.1437665,16.8804228 C16.0419215,16.9700605 15.8546303,16.976556 15.7329342,16.8942798 C15.5879346,16.7959815 15.5521162,16.6301301 15.5594525,16.0914377 L15.5646311,15.7095031 L16.2598525,15.7051728 L16.955074,15.6999764 L16.9460115,15.1318378 C16.9347913,14.4978783 16.9218449,14.4017451 16.8156844,14.1765682 C16.6132891,13.7500313 16.0527102,13.5348141 15.5870715,13.7049959 C15.2357926,13.8336065 15.0282187,14.0652789 14.9449303,14.4238297 C14.9155851,14.5502752 14.9121327,14.6637297 14.9121327,15.5912852 C14.9121327,16.7288615 14.9160166,16.7751959 15.0316711,17.0081674 C15.2383819,17.4225794 15.7558062,17.6390956 16.2261919,17.5074538 L16.2261919,17.5074538 Z M13.4733566,16.8596372 C13.5160797,16.8306241 13.5441303,16.7903521 13.5661391,16.7275624 C13.5941897,16.6448532 13.5967789,16.5396263 13.592895,15.5640042 C13.5890111,14.547244 13.5868534,14.4874855 13.5540558,14.4207985 C13.4699043,14.2506168 13.2580149,14.2341615 13.063819,14.3831247 L12.9999501,14.4316243 L12.9999501,15.5912852 L12.9999501,16.7509461 L13.0633874,16.7994457 C13.2070924,16.909436 13.3646069,16.9323867 13.4733566,16.8596372 L13.4733566,16.8596372 Z M13.8941145,17.5143823 C13.9998434,17.483637 14.1275812,17.3576246 14.1849768,17.2290139 C14.2954527,16.9826185 14.2958843,16.976556 14.2958843,15.5912852 C14.2958843,14.454142 14.2924319,14.3138395 14.2643814,14.1908583 C14.1733251,13.7972318 13.9748137,13.6253179 13.6407967,13.6504338 C13.453937,13.6651569 13.3067797,13.7396385 13.1302771,13.9106863 C13.0534619,13.9847348 12.984846,14.0457924 12.9770781,14.0457924 C12.9701734,14.0457924 12.9637002,13.6690542 12.9637002,13.2091737 L12.9637002,12.3725551 L12.637451,12.3725551 L12.3112018,12.3725551 L12.3112018,14.9365402 L12.3112018,17.5009583 L12.637451,17.5009583 L12.9637002,17.5009583 L12.9637002,17.3281784 C12.9637002,17.2134248 12.9706049,17.1553984 12.9839829,17.1553984 C12.9947715,17.1553984 13.0681344,17.216023 13.1471075,17.2905045 C13.4008568,17.5299715 13.620514,17.5957924 13.8941145,17.5143823 L13.8941145,17.5143823 Z M10.4214596,17.497494 C10.5517867,17.4489944 10.7049857,17.3424684 10.8340181,17.2108266 C10.89314,17.150202 10.9522618,17.1008363 10.9652082,17.1008363 C10.9824701,17.1008363 10.9885118,17.150202 10.9885118,17.3008973 L10.9885118,17.5009583 L11.3147609,17.5009583 L11.6410101,17.5009583 L11.6410101,15.6003789 L11.6410101,13.7002325 L11.3147609,13.7002325 L10.9885118,13.7002325 L10.9885118,15.1660474 L10.9885118,16.6322952 L10.8478276,16.7721647 C10.7364886,16.883454 10.6898816,16.9172306 10.6208341,16.936284 C10.5043166,16.9687614 10.4300906,16.9462437 10.3821889,16.8635345 C10.345939,16.8020439 10.3450759,16.7734638 10.3398973,15.2504887 L10.3351503,13.7002325 L10.0089012,13.7002325 L9.68351507,13.7002325 L9.68351507,15.3461889 C9.68351507,17.1393762 9.68524126,17.1783491 9.78536005,17.3511291 C9.89497287,17.5399312 10.1513115,17.5992567 10.4214596,17.497494 L10.4214596,17.497494 Z M10.6985125,19.0832589 C10.2747338,19.0758973 9.77327675,19.0642054 9.58382783,19.0572769 C8.31206023,19.0113755 7.43904162,18.9624428 7.26469682,18.9269341 C7.01612603,18.8767024 6.73821007,18.7078197 6.57681167,18.5090578 C6.31874685,18.190779 6.18065196,17.804514 6.11376225,17.2099605 C5.95883705,15.8277209 5.96228942,14.2155411 6.12325627,12.8818012 C6.1940299,12.2972074 6.36966934,11.8750008 6.66441561,11.5805387 C6.83271875,11.4120891 6.9945487,11.3185541 7.20989041,11.2631259 C7.67682375,11.1431759 11.3302966,11.0479088 13.5527612,11.0972745 C14.8366121,11.1258547 16.2236026,11.1856131 16.5921433,11.2276173 C17.0690022,11.2821794 17.4038823,11.5298739 17.6356228,11.9997141 C17.8108307,12.3543677 17.8665002,12.6306424 17.9377054,13.4819842 C17.9933749,14.1557827 18.0071844,14.5758241 17.9968273,15.3539834 C17.9851755,16.2850032 17.9260536,17.1051666 17.8375866,17.5654801 C17.7443725,18.0522086 17.5242838,18.4670537 17.2390316,18.6917975 C17.0193744,18.8654435 16.7850446,18.9429563 16.4160724,18.9637419 C16.3064595,18.9702374 16.1679331,18.978898 16.1079481,18.9836614 C15.8956272,19.0001166 14.7572075,19.0460181 14.1327597,19.0637724 C13.2049347,19.0897543 11.5814567,19.098848 10.6985125,19.0832589 Z M9.55357086,10.6368153 C9.53803519,10.6112664 9.54062446,9.11513927 9.55616014,8.9033864 C9.57644283,8.63187506 9.53069889,8.41795703 9.33650296,7.87147009 C9.27349717,7.69435982 9.15956889,7.35053206 9.0836167,7.10803389 C8.53425798,5.35468552 8.56317159,5.45731421 8.61582027,5.45688118 C8.9778878,5.45384995 9.42453845,5.45601511 9.42971701,5.4612115 C9.43316938,5.46467576 9.55055003,5.89251182 9.69080265,6.41258378 C9.83148682,6.93222272 9.94843593,7.36482213 9.95145675,7.37434884 C9.95404603,7.38300949 10.0364714,7.08031981 10.1344325,6.70141642 C10.3394171,5.90636886 10.45464,5.46770699 10.4589555,5.4638097 C10.4680179,5.45514905 10.5698629,5.45341692 10.9034484,5.45514905 L11.2724207,5.45731421 L11.2642213,5.51663966 C11.2577481,5.56470626 11.0057249,6.41344985 10.74205,7.27561745 C10.7135679,7.37088458 10.6397735,7.61641398 10.5789254,7.82167136 C10.5180773,8.0264957 10.4447144,8.26985994 10.4153693,8.36252888 L10.362289,8.53141153 L10.362289,9.58454644 C10.362289,10.5722934 10.3601313,10.6385474 10.3307861,10.646342 C10.264328,10.6645294 9.56522262,10.6558687 9.55357086,10.6368153 Z M14.3221599,10.700038 C14.1400473,10.6757882 14.0334553,10.6052039 13.9605239,10.460138 C13.8690361,10.2782644 13.8690361,10.2791305 13.8690361,8.4668897 L13.8690361,6.775898 L14.2367137,6.775898 L14.6039598,6.775898 L14.6117276,8.3348148 C14.619927,10.0279717 14.6177693,9.98856571 14.7187512,10.0141146 C14.8115337,10.0370653 14.9142417,9.98726661 15.0419795,9.85649081 L15.1645387,9.73134444 L15.1692857,8.2534047 L15.1736012,6.775898 L15.5408473,6.77070161 L15.9080934,6.76637129 L15.9080934,8.70159329 L15.9080934,10.6372483 L15.858034,10.6476411 C15.798049,10.660199 15.241354,10.659333 15.1964732,10.646342 C15.1692857,10.6389804 15.1649703,10.6138646 15.1649703,10.4623032 L15.1649703,10.286492 L15.060536,10.3886877 C14.8205962,10.6229582 14.5616682,10.7320824 14.3221599,10.700038 L14.3221599,10.700038 Z M12.4716884,9.96085163 C12.5977,9.86471843 12.5985631,9.85649081 12.6050363,8.76828028 C12.6106464,7.92256792 12.6076256,7.77880115 12.5821643,7.66361452 C12.5476406,7.50772284 12.4872241,7.43410732 12.3689804,7.40162989 C12.2162129,7.36092484 12.0763918,7.44839739 12.0271955,7.61598095 C11.9900825,7.74502462 11.9905141,9.66335834 12.0280586,9.79240201 C12.0565407,9.88940128 12.147597,9.99549423 12.2149183,10.0102173 C12.3025222,10.0288377 12.4099773,10.0080522 12.47212,9.96085163 L12.4716884,9.96085163 Z M12.1838469,10.699172 C11.8550085,10.659333 11.5529259,10.4653344 11.4074947,10.2003186 C11.2594743,9.93053936 11.2456648,9.78937079 11.2542957,8.60112976 C11.2612004,7.68093581 11.2637897,7.6233425 11.3000396,7.4912676 C11.3867805,7.17731908 11.5546521,6.96340105 11.8148746,6.83392435 C12.1721952,6.65681408 12.5575662,6.6797648 12.894604,6.89887922 C13.1095142,7.03788263 13.2398412,7.23967575 13.3097518,7.53976724 C13.3403916,7.67227516 13.3434124,7.77403779 13.3434124,8.70332541 C13.3434124,9.83354009 13.3382339,9.89892799 13.2225794,10.1435913 C13.1116719,10.379594 12.8605119,10.5874496 12.5985631,10.6606321 C12.4829086,10.6922434 12.2822395,10.7112969 12.1838469,10.699172 L12.1838469,10.699172 Z" id="Shape" fill="#000000"></path>
                    </g>
                </g>
            </g>
        </g>
    </g>
</svg>